<?xml version="1.0" encoding="UTF-8"?>
<svg version="1.1" xmlns="http://www.w3.org/2000/svg" width="56" height="50">
<path d="M0 0 C3.54337443 2.97965577 6.65477765 6.12205529 8.75 10.3125 C8.75 13.9425 8.75 17.5725 8.75 21.3125 C-3.46 21.3125 -15.67 21.3125 -28.25 21.3125 C-28.25 8.46401515 -28.25 8.46401515 -23.703125 3.6875 C-16.55119029 -2.89481159 -8.79384603 -4.56603544 0 0 Z " fill="#214454" transform="translate(28.25,28.6875)"/>
<path d="M0 0 C2.78880195 2.46070761 3.9246613 4.34066939 5.125 7.875 C5.125 12.66159166 4.73152978 15.54493055 1.75 19.3125 C-1.38944147 22.37719286 -2.9187716 22.80416827 -7.25 23.125 C-11.96828765 22.79960085 -14.27387687 21.41894016 -17.625 18.1875 C-19.43653816 14.8361544 -20.11361512 11.64371535 -19.875 7.875 C-18.6986935 4.48485823 -17.12079519 1.65948609 -14.0078125 -0.30078125 C-9.4006354 -2.0812105 -4.54700059 -1.7792611 0 0 Z " fill="#214354" transform="translate(25.875,1.125)"/>
<path d="M0 0 C2.99993115 2.54994148 3.85480459 4.12882756 4.5 8 C3.85480459 11.87117244 2.99993115 13.45005852 0 16 C-3.77944906 16.8209459 -6.90795859 16.47601805 -10.4375 14.9375 C-12.79259706 12.01717965 -12.93611417 9.70537805 -13 6 C-10.2354927 -0.05558743 -6.47528776 -1.126137 0 0 Z " fill="#214354" transform="translate(47,16)"/>
<path d="M0 0 C8.83928571 -0.66964286 8.83928571 -0.66964286 12.4375 2.1875 C16.49749028 6.64358689 17 8.94312581 17 15 C12.05 15 7.1 15 2 15 C1.34 10.05 0.68 5.1 0 0 Z " fill="#214354" transform="translate(39,35)"/>
</svg>
