<?xml version="1.0" encoding="UTF-8"?>
<svg version="1.1" xmlns="http://www.w3.org/2000/svg" width="36" height="34">
<path d="M0 0 C2.5 1.5 2.5 1.5 4 3 C6.6905528 1.77992056 6.6905528 1.77992056 9 0 C13.65097645 -0.67266188 17.00993418 -0.60616275 21.0625 1.875 C23.81953505 6.32183072 24.09082733 9.90427804 23 15 C21.42209554 18.1002489 19.38498114 20.48454943 17 23 C16.40058594 23.64195313 15.80117188 24.28390625 15.18359375 24.9453125 C12.3137753 27.90810563 9.42222972 30.67288379 6 33 C-1.45676175 29.60303076 -9.30432395 22.39135211 -13 15 C-13.62286015 9.97262876 -13.77644356 6.21319306 -11 1.875 C-6.85757508 -0.71401558 -4.83799741 -0.61434888 0 0 Z " fill="#4D6976" transform="translate(13,0)"/>
</svg>
