<?xml version="1.0" encoding="UTF-8"?>
<svg version="1.1" xmlns="http://www.w3.org/2000/svg" width="50" height="43">
<path d="M0 0 C13.2 0 26.4 0 40 0 C40 10.89 40 21.78 40 33 C35.80906779 29.40777239 31.89786207 26.01936764 28.0625 22.125 C27.29035156 21.34382813 26.51820312 20.56265625 25.72265625 19.7578125 C25.15417969 19.17773438 24.58570312 18.59765625 24 18 C21.00779732 19.36370299 18.70973471 20.94908083 16.25 23.125 C15.63640625 23.66382812 15.0228125 24.20265625 14.390625 24.7578125 C13.93171875 25.16773437 13.4728125 25.57765625 13 26 C11.68 25.34 10.36 24.68 9 24 C8.43410156 24.6496875 7.86820312 25.299375 7.28515625 25.96875 C6.55167969 26.8040625 5.81820313 27.639375 5.0625 28.5 C4.33160156 29.3353125 3.60070312 30.170625 2.84765625 31.03125 C2.23792969 31.6809375 1.62820312 32.330625 1 33 C0.67 33 0.34 33 0 33 C0 22.11 0 11.22 0 0 Z " fill="#224354" transform="translate(0,10)"/>
<path d="M0 0 C13.2 0 26.4 0 40 0 C40 10.56 40 21.12 40 32 C38.02 32 36.04 32 34 32 C34 23.42 34 14.84 34 6 C22.78 6 11.56 6 0 6 C0 4.02 0 2.04 0 0 Z " fill="#214455" transform="translate(10,0)"/>
</svg>
