<?xml version="1.0" encoding="UTF-8"?>
<svg version="1.1" xmlns="http://www.w3.org/2000/svg" width="53" height="50">
<path d="M0 0 C3.29818961 1.64909481 3.870756 5.27085964 5.125 8.5625 C5.54072266 9.62887695 5.54072266 9.62887695 5.96484375 10.71679688 C6.64942596 12.47546496 7.32551635 14.23743424 8 16 C9.20398437 16.12117188 10.40796875 16.24234375 11.6484375 16.3671875 C13.22400766 16.53599859 14.79952592 16.70529459 16.375 16.875 C17.56609375 16.99294922 17.56609375 16.99294922 18.78125 17.11328125 C24.7734375 17.7734375 24.7734375 17.7734375 27 20 C25.39801112 21.46072532 23.79332884 22.91849716 22.1875 24.375 C21.29417969 25.18710937 20.40085938 25.99921875 19.48046875 26.8359375 C17 29 17 29 14 31 C14.72362927 37.39205856 15.80343362 43.68027076 17 50 C11.88682947 48.68893063 8.31001084 46.26206075 4.1484375 43.14453125 C2.12662575 41.82987014 2.12662575 41.82987014 0.109375 42.1015625 C-2.80168874 43.34146002 -5.42232339 44.91898044 -8.125 46.5625 C-13.78269618 50 -13.78269618 50 -16 50 C-15.37968409 43.42465139 -13.85102717 37.33307408 -12 31 C-12.55171875 30.76539062 -13.1034375 30.53078125 -13.671875 30.2890625 C-16.59325764 28.67151842 -18.79574497 26.63549805 -21.25 24.375 C-22.14203125 23.55773437 -23.0340625 22.74046875 -23.953125 21.8984375 C-24.62859375 21.27195312 -25.3040625 20.64546875 -26 20 C-25.67 19.34 -25.34 18.68 -25 18 C-19.06 17.67 -13.12 17.34 -7 17 C-6.5875 15.68 -6.175 14.36 -5.75 13 C-4.22975013 8.4101547 -2.25324059 4.27338733 0 0 Z " fill="#214354" transform="translate(26,0)"/>
</svg>
