<?xml version="1.0" encoding="UTF-8"?>
<svg version="1.1" xmlns="http://www.w3.org/2000/svg" width="35" height="36">
<path d="M0 0 C1.32 0.66 2.64 1.32 4 2 C4 3.65 4 5.3 4 7 C4.96099609 6.76603516 4.96099609 6.76603516 5.94140625 6.52734375 C11.37234363 5.3051805 15.55055361 4.81533774 21 6 C20.67 4.35 20.34 2.7 20 1 C21.65 0.67 23.3 0.34 25 0 C28.86639189 4.54301047 30.86319936 7.66493717 30.48046875 13.7265625 C29.2922793 19.3487272 26.31185741 22.92909599 21.9375 26.5 C16.94630365 28.95181575 11.39837378 28.74330877 6 28 C0.98208316 25.58064724 -2.49958655 22.0008269 -5 17 C-5.53160491 12.15455196 -5.86371794 7.60887889 -3.0625 3.4375 C-1 1 -1 1 0 0 Z " fill="#4D6876" transform="translate(5,8)"/>
<path d="M0 0 C1.32 0.33 2.64 0.66 4 1 C3.67 1.66 3.34 2.32 3 3 C5.31 3.33 7.62 3.66 10 4 C10 7 10 7 8.5 8.6875 C8.005 9.120625 7.51 9.55375 7 10 C7.33 10.99 7.66 11.98 8 13 C5 13 2 13 -1 13 C-3.00309329 13.31421071 -5.00371336 13.6451046 -7 14 C-6.67 12.68 -6.34 11.36 -6 10 C-6.804375 9.54625 -7.60875 9.0925 -8.4375 8.625 C-11 7 -11 7 -12 5 C-9.01405576 3.50702788 -6.29146376 3.88244772 -3 4 C-2.34 4.33 -1.68 4.66 -1 5 C-0.67 3.35 -0.34 1.7 0 0 Z " fill="#4D6876" transform="translate(17,0)"/>
</svg>
